<!-- Uncomment following when using your own custom external stylesheet.-->
<!--
<?xml-stylesheet type="text/css" href="xppaut-stylesheet.css" ?>
-->
<svg  xmlns="http://www.w3.org/2000/svg"
      xmlns:xlink="http://www.w3.org/1999/xlink" font-size="12pt" width="640" height="400">


      <defs>
          <circle class="xpppointP" id = "xpppointP"  r = "1"  stroke-width = "1"/>
          <circle class="xppbead" id = "xppbead"  r = "1"  stroke-width = "1"/>
          <circle class="xpppointD" id = "xpppointD"  r = "1"  stroke-width = "1"/>
          <circle class="xpppointA" id = "xpppointA"  r = "1"  stroke-width = "1"/>
          <circle class="xpppointB" id = "xpppointB"  r = "1"  stroke-width = "1"/>
          <circle class="xpppointC" id = "xpppointC"  r = "1"  stroke-width = "1"/>
          <circle class="xpppointT" id = "xpppointT"  r = "1"  stroke-width = "1"/>
          <circle class="xpppointS" id = "xpppointS"  r = "1"  stroke-width = "1"/>
          <circle class="xpppointK" id = "xpppointK"  r = "3"  stroke-width = "0.75"/>
          <circle class="xpppointF" id = "xpppointF"  r = "2"  stroke-width = "0"/>
      </defs>



      <!-- Comment out the following style block when using your own custom external stylesheet.-->
      <!-- As a starting point for your custom external stylesheet, consider copying the style 
           information (between but not including CDATA tags) to a file named xppaut-stylesheet.css 
       -->
      <style type="text/css">
           <![CDATA[
      
                 circle.xpppointP {
                    stroke-width: 1.0;
                 }

                 circle.xpppointD {
                    stroke-width: 1.0;
                 }

                 circle.xpppointA {
                    stroke-width: 1.0;
                 }

                 circle.xpppointB {
                    stroke-width: 1.0;
                 }

                 circle.xpppointC {
                    stroke-width: 1.0;
                 }

                 circle.xpppointT {
                    stroke-width: 1.0;
                 }

                 circle.xpppointS {
                    stroke-width: 1.0;
                 }

                 circle.xpppointK {
                    stroke-width: 1.0;
                 }

                 circle.xpppointF {
                    stroke-width: 1.0;
                 }

                 line.xppaxes {
                    stroke: #000000;
                 }
                 line.xppboxaxes {
                    stroke: #000000;
                 }
                 line.xppdfield {
                    stroke: #000000;
                 }
                 line.xpplineb {
                    stroke: #000000;
                 }
                 line.xpplinea {
                    stroke-dasharray: 2,8;
                    stroke-width: 2;
                    stroke: #000000;
                 }
                 line.xppline0 {
                    stroke: #000000;
                 }
                 line.xppline1 {
                    stroke-width: 1;
                    stroke: #FF0000;
                 }
                 line.xppline2 {
                    stroke: #F06400;
                 }
                 line.xppline3 {
                    stroke: #FFA500;
                 }
                 line.xppline4 {
                    stroke: #FFCD00;
                 }
                 line.xppline5 {
                    stroke: #C8C800;
                 }
                 line.xppline6 {
                    stroke: #00FF00;
                 }
                 line.xppline7 {
                    stroke: #32CD32;
                 }
                 line.xppline8 {
                    stroke: #00C8C8;
                 }
                 line.xppline9 {
                    stroke: #0000FF;
                 }
                 line.xpplinec {
                    stroke: #000000;
                 }
                 
                 text.xpptext {
                    font-family: sans-serif;
                    font-size  : 1em;
                    stroke	: #000000;
                    fill	: #000000;
                    baseline-shift:-33%;
                    dominant-baseline: central;
                 }
                 text.xppyaxislabelh {
                    font-family: sans-serif;
                    font-size  : 1em;
                    stroke	: none;
                    fill	: none;
                    baseline-shift:-33%;
                    dominant-baseline: central;
                 }
                 text.xppyaxislabelv {
                    font-family: sans-serif;
                    font-size  : 1em;
                    stroke	: #000000;
                    fill	: #000000;
                    baseline-shift:-33%;
                    dominant-baseline: central;
                 }
                 text.xppaxestext {
                    font-family: sans-serif;
                    font-size  : 1em;
                    stroke	: #000000;
                    fill	: #000000;
                    baseline-shift:-33%;
                    dominant-baseline: central;
                 }
                 
                 text.xpptext0 {
                    font-family: sans-serif;
                    font-size  : 0.5em;
                    stroke	: #000000;
                    fill	: #000000;
                    baseline-shift:-33%;
                    dominant-baseline: central;
                 }
                 
                 text.xpptext1 {
                    font-family: sans-serif;
                    font-size  : 0.75em;
                    stroke	: #000000;
                    fill	: #000000;
                    baseline-shift:-33%;
                    dominant-baseline: central;
                 }
                 
                 text.xpptext2 {
                    font-family: sans-serif;
                    font-size  : 1em;
                    stroke	: #000000;
                    fill	: #000000;
                    baseline-shift:-33%;
                    dominant-baseline: central;
                 }
                 
                 text.xpptext3 {
                    font-family: sans-serif;
                    font-size  : 1.25em;
                    stroke	: #000000;
                    fill	: #000000;
                    baseline-shift:-33%;
                    dominant-baseline: central;
                 }
                 
                 text.xpptext4 {
                    font-family: sans-serif;
                    font-size  : 1.5em;
                    stroke	: #000000;
                    fill	: #000000;
                    baseline-shift:-33%;
                    dominant-baseline: central;
                 }
		   line.xppaxes {
		      stroke: #000000;
		      stroke-width: 2;
		   }
		  
		   line.xppboxaxes {
		      stroke: none;
		      stroke-width: 0;
		   }

		   text.xppaxestext {
		      stroke: #000000;
		      fill: #000000;
		   }
		   
		   text.xppyaxislabelv {
		      stroke: #000000;
		      fill: #000000;
		   }
		   
		   text.xppyaxislabelh {
		      stroke: none;
		      fill: none;
		   }
                   
		   line.xppline0 {
                      stroke: #000000;
		      stroke-dasharray: 4,4;
                   }
		   
		   rect {
		   	fill-opacity: 0.2;
			stroke-opacity: 0.2;
		   }
           ]]>
      </style>

      <line class="xppboxaxes"  x1="144"  y1="51" x2="595"   y2="51" />
      <line class="xppboxaxes"  x1="595"  y1="51" x2="595"   y2="329" />
      <line class="xppaxes"  x1="595"  y1="329" x2="144"   y2="329" />
      <line class="xppaxes"  x1="144"  y1="329" x2="144"   y2="51" />
      <line class="xppaxes"  x1="144"  y1="329" x2="153"   y2="329" />
      <line class="xppboxaxes"  x1="595"  y1="329" x2="586"   y2="329" />

      <text class="xppaxestext" text-anchor="end" x="129"  y="329"
      >-0.5</text>
      <line class="xppaxes"  x1="144"  y1="299" x2="153"   y2="299" />
      <line class="xppboxaxes"  x1="595"  y1="299" x2="586"   y2="299" />

      <text class="xppaxestext" text-anchor="end" x="129"  y="299"
      >-0.4</text>
      <line class="xppaxes"  x1="144"  y1="268" x2="153"   y2="268" />
      <line class="xppboxaxes"  x1="595"  y1="268" x2="586"   y2="268" />

      <text class="xppaxestext" text-anchor="end" x="129"  y="268"
      >-0.3</text>
      <line class="xppaxes"  x1="144"  y1="237" x2="153"   y2="237" />
      <line class="xppboxaxes"  x1="595"  y1="237" x2="586"   y2="237" />

      <text class="xppaxestext" text-anchor="end" x="129"  y="237"
      >-0.2</text>
      <line class="xppaxes"  x1="144"  y1="206" x2="153"   y2="206" />
      <line class="xppboxaxes"  x1="595"  y1="206" x2="586"   y2="206" />

      <text class="xppaxestext" text-anchor="end" x="129"  y="206"
      >-0.1</text>
      <line class="xppaxes"  x1="144"  y1="175" x2="153"   y2="175" />
      <line class="xppboxaxes"  x1="595"  y1="175" x2="586"   y2="175" />

      <text class="xppaxestext" text-anchor="end" x="129"  y="175"
      >0</text>
      <line class="xppaxes"  x1="144"  y1="144" x2="153"   y2="144" />
      <line class="xppboxaxes"  x1="595"  y1="144" x2="586"   y2="144" />

      <text class="xppaxestext" text-anchor="end" x="129"  y="144"
      >0.1</text>
      <line class="xppaxes"  x1="144"  y1="113" x2="153"   y2="113" />
      <line class="xppboxaxes"  x1="595"  y1="113" x2="586"   y2="113" />

      <text class="xppaxestext" text-anchor="end" x="129"  y="113"
      >0.2</text>
      <line class="xppaxes"  x1="144"  y1="82" x2="153"   y2="82" />
      <line class="xppboxaxes"  x1="595"  y1="82" x2="586"   y2="82" />

      <text class="xppaxestext" text-anchor="end" x="129"  y="82"
      >0.3</text>
      <line class="xppaxes"  x1="144"  y1="52" x2="153"   y2="52" />
      <line class="xppboxaxes"  x1="595"  y1="52" x2="586"   y2="52" />

      <text class="xppaxestext" text-anchor="end" x="129"  y="52"
      >0.4</text>

      <text class="xppyaxislabelv" text-anchor="middle" x="0"  y="0"
      transform="rotate(-90,75,180) translate(75,180)"
      >V</text>

      <text class="xppyaxislabelh" text-anchor="end" x="132"  y="12"
      >V</text>
      <line class="xppaxes"  x1="144"  y1="329" x2="144"   y2="320" />
      <line class="xppboxaxes"  x1="144"  y1="51" x2="144"   y2="60" />

      <text class="xppaxestext" text-anchor="middle" x="144"  y="354"
      >-0.2</text>
      <line class="xppaxes"  x1="208"  y1="329" x2="208"   y2="320" />
      <line class="xppboxaxes"  x1="208"  y1="51" x2="208"   y2="60" />

      <text class="xppaxestext" text-anchor="middle" x="208"  y="354"
      >-0.1</text>
      <line class="xppaxes"  x1="272"  y1="329" x2="272"   y2="320" />
      <line class="xppboxaxes"  x1="272"  y1="51" x2="272"   y2="60" />

      <text class="xppaxestext" text-anchor="middle" x="272"  y="354"
      >0</text>
      <line class="xppaxes"  x1="337"  y1="329" x2="337"   y2="320" />
      <line class="xppboxaxes"  x1="337"  y1="51" x2="337"   y2="60" />

      <text class="xppaxestext" text-anchor="middle" x="337"  y="354"
      >0.1</text>
      <line class="xppaxes"  x1="401"  y1="329" x2="401"   y2="320" />
      <line class="xppboxaxes"  x1="401"  y1="51" x2="401"   y2="60" />

      <text class="xppaxestext" text-anchor="middle" x="401"  y="354"
      >0.2</text>
      <line class="xppaxes"  x1="466"  y1="329" x2="466"   y2="320" />
      <line class="xppboxaxes"  x1="466"  y1="51" x2="466"   y2="60" />

      <text class="xppaxestext" text-anchor="middle" x="466"  y="354"
      >0.3</text>
      <line class="xppaxes"  x1="530"  y1="329" x2="530"   y2="320" />
      <line class="xppboxaxes"  x1="530"  y1="51" x2="530"   y2="60" />

      <text class="xppaxestext" text-anchor="middle" x="530"  y="354"
      >0.4</text>
      <line class="xppaxes"  x1="594"  y1="329" x2="594"   y2="320" />
      <line class="xppboxaxes"  x1="594"  y1="51" x2="594"   y2="60" />

      <text class="xppaxestext" text-anchor="middle" x="594"  y="354"
      >0.5</text>

      <text class="xppaxestext" text-anchor="middle" x="369"  y="379"
      >iapp</text>
      <line class="xppline0"  x1="272"  y1="328" x2="272"   y2="328" />
      <line class="xppline1"  x1="283"  y1="317" x2="272"   y2="328" />
      <line class="xppline1"  x1="289"  y1="311" x2="283"   y2="317" />
      <line class="xppline1"  x1="294"  y1="306" x2="289"   y2="311" />
      <line class="xppline1"  x1="299"  y1="300" x2="294"   y2="306" />
      <line class="xppline1"  x1="304"  y1="294" x2="299"   y2="300" />
      <line class="xppline1"  x1="308"  y1="289" x2="304"   y2="294" />
      <line class="xppline1"  x1="313"  y1="283" x2="308"   y2="289" />
      <line class="xppline1"  x1="317"  y1="277" x2="313"   y2="283" />
      <line class="xppline1"  x1="320"  y1="271" x2="317"   y2="277" />
      <line class="xppline1"  x1="323"  y1="265" x2="320"   y2="271" />
      <line class="xppline1"  x1="325"  y1="259" x2="323"   y2="265" />
      <line class="xppline1"  x1="326"  y1="253" x2="325"   y2="259" />
      <line class="xppline0"  x1="326"  y1="251" x2="326"   y2="253" />
      <line class="xppline0"  x1="325"  y1="245" x2="326"   y2="251" />
      <line class="xppline0"  x1="323"  y1="239" x2="325"   y2="245" />
      <line class="xppline0"  x1="320"  y1="233" x2="323"   y2="239" />
      <line class="xppline0"  x1="315"  y1="227" x2="320"   y2="233" />
      <line class="xppline0"  x1="309"  y1="222" x2="315"   y2="227" />
      <line class="xppline0"  x1="302"  y1="217" x2="309"   y2="222" />
      <line class="xppline0"  x1="295"  y1="213" x2="302"   y2="217" />
      <line class="xppline0"  x1="288"  y1="208" x2="295"   y2="213" />
      <line class="xppline0"  x1="281"  y1="204" x2="288"   y2="208" />
      <line class="xppline0"  x1="274"  y1="200" x2="281"   y2="204" />
      <line class="xppline0"  x1="268"  y1="197" x2="274"   y2="200" />
      <line class="xppline0"  x1="263"  y1="193" x2="268"   y2="197" />
      <line class="xppline0"  x1="260"  y1="189" x2="263"   y2="193" />
      <line class="xppline0"  x1="259"  y1="186" x2="260"   y2="189" />
      <line class="xppline0"  x1="259"  y1="185" x2="259"   y2="186" />
      <line class="xppline0"  x1="260"  y1="182" x2="259"   y2="185" />
      <line class="xppline0"  x1="263"  y1="180" x2="260"   y2="182" />
      <line class="xppline0"  x1="267"  y1="177" x2="263"   y2="180" />
      <line class="xppline0"  x1="272"  y1="175" x2="267"   y2="177" />
      <line class="xppline0"  x1="279"  y1="172" x2="272"   y2="175" />
      <line class="xppline0"  x1="286"  y1="171" x2="279"   y2="172" />
      <line class="xppline0"  x1="294"  y1="169" x2="286"   y2="171" />
      <line class="xppline0"  x1="302"  y1="167" x2="294"   y2="169" />
      <line class="xppline0"  x1="311"  y1="165" x2="302"   y2="167" />
      <line class="xppline0"  x1="320"  y1="164" x2="311"   y2="165" />
      <line class="xppline0"  x1="329"  y1="163" x2="320"   y2="164" />
      <line class="xppline0"  x1="338"  y1="161" x2="329"   y2="163" />
      <line class="xppline0"  x1="348"  y1="160" x2="338"   y2="161" />
      <line class="xppline0"  x1="358"  y1="159" x2="348"   y2="160" />
      <line class="xppline0"  x1="368"  y1="157" x2="358"   y2="159" />
      <line class="xppline0"  x1="378"  y1="156" x2="368"   y2="157" />
      <line class="xppline0"  x1="388"  y1="155" x2="378"   y2="156" />
      <line class="xppline0"  x1="398"  y1="154" x2="388"   y2="155" />
      <line class="xppline0"  x1="404"  y1="154" x2="398"   y2="154" />
      <line class="xppline1"  x1="414"  y1="153" x2="404"   y2="154" />
      <line class="xppline1"  x1="425"  y1="152" x2="414"   y2="153" />
      <line class="xppline1"  x1="435"  y1="151" x2="425"   y2="152" />
      <line class="xppline1"  x1="446"  y1="150" x2="435"   y2="151" />
      <line class="xppline1"  x1="457"  y1="149" x2="446"   y2="150" />
      <line class="xppline1"  x1="468"  y1="148" x2="457"   y2="149" />
      <line class="xppline1"  x1="479"  y1="147" x2="468"   y2="148" />
      <line class="xppline1"  x1="489"  y1="146" x2="479"   y2="147" />
      <line class="xppline1"  x1="500"  y1="145" x2="489"   y2="146" />
      <line class="xppline1"  x1="512"  y1="144" x2="500"   y2="145" />
      <line class="xppline1"  x1="523"  y1="143" x2="512"   y2="144" />
      <line class="xppline1"  x1="534"  y1="142" x2="523"   y2="143" />
      <line class="xppline1"  x1="545"  y1="141" x2="534"   y2="142" />
      <line class="xppline1"  x1="556"  y1="141" x2="545"   y2="141" />
      <line class="xppline1"  x1="567"  y1="140" x2="556"   y2="141" />
      <line class="xppline1"  x1="579"  y1="139" x2="567"   y2="140" />
      <line class="xppline1"  x1="590"  y1="138" x2="579"   y2="139" />
      <line class="xppline1"  x1="594"  y1="138" x2="590"   y2="138" />
      <use xlink:href = "#xpppointK" x="404" y="154" style="stroke:#0000FF; fill:none"/>
      <use xlink:href = "#xpppointK" x="404" y="154" style="stroke:#0000FF; fill:none"/>
      <use xlink:href = "#xpppointK" x="405" y="147" style="stroke:#0000FF; fill:none"/>
      <use xlink:href = "#xpppointK" x="405" y="160" style="stroke:#0000FF; fill:none"/>
      <use xlink:href = "#xpppointK" x="407" y="140" style="stroke:#0000FF; fill:none"/>
      <use xlink:href = "#xpppointK" x="407" y="167" style="stroke:#0000FF; fill:none"/>
      <use xlink:href = "#xpppointK" x="411" y="134" style="stroke:#0000FF; fill:none"/>
      <use xlink:href = "#xpppointK" x="411" y="173" style="stroke:#0000FF; fill:none"/>
      <use xlink:href = "#xpppointK" x="415" y="128" style="stroke:#0000FF; fill:none"/>
      <use xlink:href = "#xpppointK" x="415" y="179" style="stroke:#0000FF; fill:none"/>
      <use xlink:href = "#xpppointK" x="418" y="122" style="stroke:#0000FF; fill:none"/>
      <use xlink:href = "#xpppointK" x="418" y="185" style="stroke:#0000FF; fill:none"/>
      <use xlink:href = "#xpppointK" x="421" y="117" style="stroke:#0000FF; fill:none"/>
      <use xlink:href = "#xpppointK" x="421" y="191" style="stroke:#0000FF; fill:none"/>
      <use xlink:href = "#xpppointK" x="424" y="112" style="stroke:#0000FF; fill:none"/>
      <use xlink:href = "#xpppointK" x="424" y="197" style="stroke:#0000FF; fill:none"/>
      <use xlink:href = "#xpppointK" x="426" y="107" style="stroke:#0000FF; fill:none"/>
      <use xlink:href = "#xpppointK" x="426" y="203" style="stroke:#0000FF; fill:none"/>
      <use xlink:href = "#xpppointK" x="427" y="102" style="stroke:#0000FF; fill:none"/>
      <use xlink:href = "#xpppointK" x="427" y="209" style="stroke:#0000FF; fill:none"/>
      <use xlink:href = "#xpppointK" x="428" y="98" style="stroke:#0000FF; fill:none"/>
      <use xlink:href = "#xpppointK" x="428" y="215" style="stroke:#0000FF; fill:none"/>
      <use xlink:href = "#xpppointK" x="428" y="96" style="stroke:#0000FF; fill:none"/>
      <use xlink:href = "#xpppointK" x="428" y="219" style="stroke:#0000FF; fill:none"/>
      <use xlink:href = "#xpppointF" x="428" y="93" style="stroke:#00FF00; fill:#00FF00"/>
      <use xlink:href = "#xpppointF" x="428" y="226" style="stroke:#00FF00; fill:#00FF00"/>
      <use xlink:href = "#xpppointF" x="426" y="90" style="stroke:#00FF00; fill:#00FF00"/>
      <use xlink:href = "#xpppointF" x="426" y="233" style="stroke:#00FF00; fill:#00FF00"/>
      <use xlink:href = "#xpppointF" x="423" y="88" style="stroke:#00FF00; fill:#00FF00"/>
      <use xlink:href = "#xpppointF" x="423" y="239" style="stroke:#00FF00; fill:#00FF00"/>
      <use xlink:href = "#xpppointF" x="419" y="87" style="stroke:#00FF00; fill:#00FF00"/>
      <use xlink:href = "#xpppointF" x="419" y="245" style="stroke:#00FF00; fill:#00FF00"/>
      <use xlink:href = "#xpppointF" x="414" y="86" style="stroke:#00FF00; fill:#00FF00"/>
      <use xlink:href = "#xpppointF" x="414" y="250" style="stroke:#00FF00; fill:#00FF00"/>
      <use xlink:href = "#xpppointF" x="409" y="86" style="stroke:#00FF00; fill:#00FF00"/>
      <use xlink:href = "#xpppointF" x="409" y="255" style="stroke:#00FF00; fill:#00FF00"/>
      <use xlink:href = "#xpppointF" x="403" y="86" style="stroke:#00FF00; fill:#00FF00"/>
      <use xlink:href = "#xpppointF" x="403" y="259" style="stroke:#00FF00; fill:#00FF00"/>
      <use xlink:href = "#xpppointF" x="397" y="86" style="stroke:#00FF00; fill:#00FF00"/>
      <use xlink:href = "#xpppointF" x="397" y="263" style="stroke:#00FF00; fill:#00FF00"/>
      <use xlink:href = "#xpppointF" x="391" y="86" style="stroke:#00FF00; fill:#00FF00"/>
      <use xlink:href = "#xpppointF" x="391" y="266" style="stroke:#00FF00; fill:#00FF00"/>
      <use xlink:href = "#xpppointF" x="385" y="86" style="stroke:#00FF00; fill:#00FF00"/>
      <use xlink:href = "#xpppointF" x="385" y="270" style="stroke:#00FF00; fill:#00FF00"/>
      <use xlink:href = "#xpppointF" x="379" y="87" style="stroke:#00FF00; fill:#00FF00"/>
      <use xlink:href = "#xpppointF" x="379" y="273" style="stroke:#00FF00; fill:#00FF00"/>
      <use xlink:href = "#xpppointF" x="374" y="87" style="stroke:#00FF00; fill:#00FF00"/>
      <use xlink:href = "#xpppointF" x="374" y="275" style="stroke:#00FF00; fill:#00FF00"/>
      <use xlink:href = "#xpppointF" x="369" y="88" style="stroke:#00FF00; fill:#00FF00"/>
      <use xlink:href = "#xpppointF" x="369" y="278" style="stroke:#00FF00; fill:#00FF00"/>
      <use xlink:href = "#xpppointF" x="364" y="89" style="stroke:#00FF00; fill:#00FF00"/>
      <use xlink:href = "#xpppointF" x="364" y="280" style="stroke:#00FF00; fill:#00FF00"/>
      <use xlink:href = "#xpppointF" x="359" y="89" style="stroke:#00FF00; fill:#00FF00"/>
      <use xlink:href = "#xpppointF" x="359" y="282" style="stroke:#00FF00; fill:#00FF00"/>
      <use xlink:href = "#xpppointF" x="355" y="90" style="stroke:#00FF00; fill:#00FF00"/>
      <use xlink:href = "#xpppointF" x="355" y="284" style="stroke:#00FF00; fill:#00FF00"/>
      <use xlink:href = "#xpppointF" x="351" y="91" style="stroke:#00FF00; fill:#00FF00"/>
      <use xlink:href = "#xpppointF" x="351" y="286" style="stroke:#00FF00; fill:#00FF00"/>
      <use xlink:href = "#xpppointF" x="347" y="92" style="stroke:#00FF00; fill:#00FF00"/>
      <use xlink:href = "#xpppointF" x="347" y="288" style="stroke:#00FF00; fill:#00FF00"/>
      <use xlink:href = "#xpppointF" x="344" y="92" style="stroke:#00FF00; fill:#00FF00"/>
      <use xlink:href = "#xpppointF" x="344" y="289" style="stroke:#00FF00; fill:#00FF00"/>
      <use xlink:href = "#xpppointF" x="341" y="93" style="stroke:#00FF00; fill:#00FF00"/>
      <use xlink:href = "#xpppointF" x="341" y="291" style="stroke:#00FF00; fill:#00FF00"/>
      <use xlink:href = "#xpppointF" x="338" y="94" style="stroke:#00FF00; fill:#00FF00"/>
      <use xlink:href = "#xpppointF" x="338" y="292" style="stroke:#00FF00; fill:#00FF00"/>
      <use xlink:href = "#xpppointF" x="336" y="94" style="stroke:#00FF00; fill:#00FF00"/>
      <use xlink:href = "#xpppointF" x="336" y="293" style="stroke:#00FF00; fill:#00FF00"/>
      <use xlink:href = "#xpppointF" x="334" y="95" style="stroke:#00FF00; fill:#00FF00"/>
      <use xlink:href = "#xpppointF" x="334" y="294" style="stroke:#00FF00; fill:#00FF00"/>
      <use xlink:href = "#xpppointF" x="333" y="95" style="stroke:#00FF00; fill:#00FF00"/>
      <use xlink:href = "#xpppointF" x="333" y="294" style="stroke:#00FF00; fill:#00FF00"/>
      <use xlink:href = "#xpppointF" x="332" y="96" style="stroke:#00FF00; fill:#00FF00"/>
      <use xlink:href = "#xpppointF" x="332" y="295" style="stroke:#00FF00; fill:#00FF00"/>
      <use xlink:href = "#xpppointF" x="330" y="96" style="stroke:#00FF00; fill:#00FF00"/>
      <use xlink:href = "#xpppointF" x="330" y="295" style="stroke:#00FF00; fill:#00FF00"/>
      <use xlink:href = "#xpppointF" x="330" y="96" style="stroke:#00FF00; fill:#00FF00"/>
      <use xlink:href = "#xpppointF" x="330" y="296" style="stroke:#00FF00; fill:#00FF00"/>
      <use xlink:href = "#xpppointF" x="329" y="97" style="stroke:#00FF00; fill:#00FF00"/>
      <use xlink:href = "#xpppointF" x="329" y="296" style="stroke:#00FF00; fill:#00FF00"/>
      <use xlink:href = "#xpppointF" x="328" y="97" style="stroke:#00FF00; fill:#00FF00"/>
      <use xlink:href = "#xpppointF" x="328" y="297" style="stroke:#00FF00; fill:#00FF00"/>
      <use xlink:href = "#xpppointF" x="328" y="97" style="stroke:#00FF00; fill:#00FF00"/>
      <use xlink:href = "#xpppointF" x="328" y="297" style="stroke:#00FF00; fill:#00FF00"/>
      <use xlink:href = "#xpppointF" x="327" y="97" style="stroke:#00FF00; fill:#00FF00"/>
      <use xlink:href = "#xpppointF" x="327" y="297" style="stroke:#00FF00; fill:#00FF00"/>
      <use xlink:href = "#xpppointF" x="327" y="97" style="stroke:#00FF00; fill:#00FF00"/>
      <use xlink:href = "#xpppointF" x="327" y="297" style="stroke:#00FF00; fill:#00FF00"/>
      <use xlink:href = "#xpppointF" x="327" y="97" style="stroke:#00FF00; fill:#00FF00"/>
      <use xlink:href = "#xpppointF" x="327" y="297" style="stroke:#00FF00; fill:#00FF00"/>
      <use xlink:href = "#xpppointF" x="326" y="97" style="stroke:#00FF00; fill:#00FF00"/>
      <use xlink:href = "#xpppointF" x="326" y="297" style="stroke:#00FF00; fill:#00FF00"/>
      <use xlink:href = "#xpppointF" x="326" y="97" style="stroke:#00FF00; fill:#00FF00"/>
      <use xlink:href = "#xpppointF" x="326" y="297" style="stroke:#00FF00; fill:#00FF00"/>
      <use xlink:href = "#xpppointF" x="326" y="97" style="stroke:#00FF00; fill:#00FF00"/>
      <use xlink:href = "#xpppointF" x="326" y="297" style="stroke:#00FF00; fill:#00FF00"/>
      <use xlink:href = "#xpppointF" x="326" y="97" style="stroke:#00FF00; fill:#00FF00"/>
      <use xlink:href = "#xpppointF" x="326" y="297" style="stroke:#00FF00; fill:#00FF00"/>
      <use xlink:href = "#xpppointF" x="326" y="98" style="stroke:#00FF00; fill:#00FF00"/>
      <use xlink:href = "#xpppointF" x="326" y="298" style="stroke:#00FF00; fill:#00FF00"/>
      <use xlink:href = "#xpppointF" x="326" y="98" style="stroke:#00FF00; fill:#00FF00"/>
      <use xlink:href = "#xpppointF" x="326" y="298" style="stroke:#00FF00; fill:#00FF00"/>
      <use xlink:href = "#xpppointF" x="326" y="98" style="stroke:#00FF00; fill:#00FF00"/>
      <use xlink:href = "#xpppointF" x="326" y="298" style="stroke:#00FF00; fill:#00FF00"/>
      <use xlink:href = "#xpppointF" x="326" y="98" style="stroke:#00FF00; fill:#00FF00"/>
      <use xlink:href = "#xpppointF" x="326" y="298" style="stroke:#00FF00; fill:#00FF00"/>
      <use xlink:href = "#xpppointF" x="326" y="98" style="stroke:#00FF00; fill:#00FF00"/>
      <use xlink:href = "#xpppointF" x="326" y="298" style="stroke:#00FF00; fill:#00FF00"/>
      <use xlink:href = "#xpppointF" x="326" y="97" style="stroke:#00FF00; fill:#00FF00"/>
      <use xlink:href = "#xpppointF" x="326" y="298" style="stroke:#00FF00; fill:#00FF00"/>
      <use xlink:href = "#xpppointF" x="326" y="98" style="stroke:#00FF00; fill:#00FF00"/>
      <use xlink:href = "#xpppointF" x="326" y="298" style="stroke:#00FF00; fill:#00FF00"/>
      <use xlink:href = "#xpppointF" x="326" y="98" style="stroke:#00FF00; fill:#00FF00"/>
      <use xlink:href = "#xpppointF" x="326" y="298" style="stroke:#00FF00; fill:#00FF00"/>
      <use xlink:href = "#xpppointF" x="326" y="98" style="stroke:#00FF00; fill:#00FF00"/>
      <use xlink:href = "#xpppointF" x="326" y="298" style="stroke:#00FF00; fill:#00FF00"/>
      <use xlink:href = "#xpppointF" x="326" y="98" style="stroke:#00FF00; fill:#00FF00"/>
      <use xlink:href = "#xpppointF" x="326" y="298" style="stroke:#00FF00; fill:#00FF00"/>
      <use xlink:href = "#xpppointF" x="326" y="98" style="stroke:#00FF00; fill:#00FF00"/>
      <use xlink:href = "#xpppointF" x="326" y="298" style="stroke:#00FF00; fill:#00FF00"/>
      <use xlink:href = "#xpppointF" x="326" y="97" style="stroke:#00FF00; fill:#00FF00"/>
      <use xlink:href = "#xpppointF" x="326" y="298" style="stroke:#00FF00; fill:#00FF00"/>
      <use xlink:href = "#xpppointK" x="326" y="98" style="stroke:#0000FF; fill:none"/>
      <use xlink:href = "#xpppointK" x="326" y="298" style="stroke:#0000FF; fill:none"/>
      <use xlink:href = "#xpppointK" x="326" y="98" style="stroke:#0000FF; fill:none"/>
      <use xlink:href = "#xpppointK" x="326" y="298" style="stroke:#0000FF; fill:none"/>
      <use xlink:href = "#xpppointF" x="326" y="97" style="stroke:#00FF00; fill:#00FF00"/>
      <use xlink:href = "#xpppointF" x="326" y="298" style="stroke:#00FF00; fill:#00FF00"/>
      <use xlink:href = "#xpppointF" x="326" y="98" style="stroke:#00FF00; fill:#00FF00"/>
      <use xlink:href = "#xpppointF" x="326" y="298" style="stroke:#00FF00; fill:#00FF00"/>
      <use xlink:href = "#xpppointF" x="326" y="98" style="stroke:#00FF00; fill:#00FF00"/>
      <use xlink:href = "#xpppointF" x="326" y="298" style="stroke:#00FF00; fill:#00FF00"/>
</svg>
